<svg width="42" height="44" viewBox="0 0 42 44" fill="none" xmlns="http://www.w3.org/2000/svg">
<path d="M40.23 30.67C41.6494 26.9841 42.2301 23.0283 41.93 19.09C41.54 15.35 40.73 11.09 38.59 7.94C36.5616 5.13585 33.8487 2.89806 30.71 1.43999C27.54 -0.130006 23.38 -0.820005 20.61 1.78999C18.43 0.00999475 15.31 0.279995 12.8 1.35C11.1083 2.0559 9.49873 2.94451 8 3.99999C6.75427 5.08854 5.6849 6.36369 4.83 7.78C3.70675 9.16263 2.7564 10.6772 2 12.29C1.33552 14.0268 0.846424 15.8258 0.540001 17.66C-0.168739 21.2924 -0.168739 25.0276 0.540001 28.66C1.2795 32.2791 2.95524 35.6409 5.4 38.41C4.82437 39.9477 4.53625 41.5781 4.55 43.22C4.57121 43.4027 4.65882 43.5713 4.79617 43.6936C4.93353 43.8159 5.11106 43.8835 5.295 43.8835C5.47894 43.8835 5.65647 43.8159 5.79383 43.6936C5.93119 43.5713 6.0188 43.4027 6.04 43.22C6.02014 41.1622 6.5298 39.134 7.52 37.33C7.98 36.49 6.69 35.73 6.23 36.57C6.17 36.68 6.12 36.79 6.07 36.9C2.14 32.27 1 26 1.64 20.13C1.98 17.03 2.64 13.48 4.41 10.86C5.31 9.54 6.3 8.28999 7.22 6.97999C8.18021 5.72031 9.41929 4.70029 10.84 3.99999C13.41 2.53999 17.18 0.729995 19.75 2.99999C19.7592 3.08986 19.7828 3.17766 19.82 3.25999C19.9081 3.43351 20.0084 3.60059 20.12 3.75999C19.12 5.14999 17.23 5.23 15.68 5.39C13.9623 5.49834 12.3235 6.14968 11 7.24999C8.37 9.49 6.58 12.99 5.49 16.25C4.38879 20.005 3.96883 23.9269 4.25 27.83C4.18279 29.5936 4.64986 31.3364 5.59 32.83C6.57211 34.1488 7.83617 35.2318 9.29 36C12.4281 37.7031 15.9096 38.6775 19.4759 38.8506C23.0422 39.0237 26.6017 38.3912 29.89 37C33.02 35.67 35.61 33.59 36.43 30.16C37.2245 26.2722 37.2856 22.2702 36.61 18.36C36.3921 16.3207 35.813 14.3365 34.9 12.5C33.9903 10.9479 32.7343 9.62684 31.23 8.63999C29.6157 7.58147 27.9205 6.65192 26.16 5.85999C24.67 5.12999 22.54 4.45 21.47 3.04999C23.99 0.499995 27.88 1.58999 30.68 3.10999C33.675 4.57211 36.1877 6.8627 37.92 9.70999C38.7709 11.4252 39.3833 13.2488 39.74 15.13C40.1998 17.0015 40.4711 18.9144 40.55 20.84C40.69 24.68 39.55 28.12 38.3 31.7C37.17 35.07 35.77 39.41 37.71 42.7C37.8215 42.831 37.9746 42.9197 38.1437 42.9512C38.3129 42.9827 38.4877 42.9552 38.6389 42.8731C38.7901 42.7911 38.9085 42.6595 38.9742 42.5006C39.04 42.3416 39.0491 42.1649 39 42C38 40.27 38.19 38.15 38.56 36.26C38.9917 34.3616 39.5496 32.4941 40.23 30.67ZM10.06 10.48C11.5293 10.7658 12.8802 11.4829 13.94 12.54C13.166 12.7087 12.4069 12.9395 11.67 13.23C11.4826 12.9514 11.2282 12.7244 10.93 12.57C10.7571 12.4752 10.5721 12.4046 10.38 12.36C10.1837 12.3131 9.98138 12.2963 9.78 12.31C9.59037 12.3045 9.40308 12.3531 9.24 12.45C9.04461 12.5835 8.90288 12.7819 8.84 13.01C8.79159 13.23 8.76811 13.4547 8.77 13.68C8.78182 13.9181 8.80854 14.1552 8.85 14.39C8.86131 14.4915 8.88138 14.5919 8.91 14.69C8.26573 15.1211 7.65407 15.5991 7.08 16.12C7.83061 14.1176 8.83911 12.2216 10.08 10.48H10.06ZM35.49 25.69C35.4723 27.437 35.1995 29.172 34.68 30.84C34.0652 32.4127 32.9283 33.7261 31.46 34.56C25.84 38.06 18.22 38.2 12.19 35.72C9 34.42 6 32.46 5.76 28.78C5.45795 25.5511 5.6128 22.2957 6.22 19.11C6.33507 19.0645 6.43783 18.9925 6.52 18.9C7.93421 17.1185 9.75516 15.7022 11.83 14.77C14.2632 13.8098 16.8806 13.4066 19.49 13.59C22.2788 13.6334 25.0536 13.9957 27.76 14.67C29.0027 14.9892 30.2249 15.3832 31.42 15.85C32.57 16.3 34.18 16.79 34.97 17.85C35.0047 17.898 35.0449 17.9416 35.09 17.98C35.5094 20.5271 35.6435 23.1131 35.49 25.69ZM34.2 14.55C34.33 14.91 34.44 15.27 34.55 15.64C34.0871 15.3972 33.6095 15.1835 33.12 15L32.87 14.9C32.87 14.9 32.87 14.9 32.87 14.84C32.8529 14.111 32.6498 13.3985 32.28 12.77C32.1927 12.5819 32.065 12.4154 31.906 12.2823C31.747 12.1492 31.5605 12.0528 31.36 12C30.9425 11.9408 30.5168 12.0106 30.14 12.2C29.5137 12.4798 28.9468 12.8769 28.47 13.37C27.69 13.16 26.89 12.98 26.09 12.83C26.5177 12.2094 27.0216 11.645 27.59 11.15C27.77 10.98 27.97 10.82 28.16 10.67L28.27 10.59L28.42 10.48L28.74 10.26C29.11 10.0235 29.494 9.8098 29.89 9.62C31.8285 10.7461 33.3429 12.4784 34.2 14.55ZM22.88 5.90999C24.45 6.69999 26.05 7.43 27.61 8.24L28.41 8.67C26.8182 9.61871 25.4773 10.9356 24.5 12.51C22.9585 12.2915 21.4062 12.158 19.85 12.11C18.462 12.0529 17.0717 12.0964 15.69 12.24C14.5119 10.7886 12.9112 9.74009 11.11 9.24C11.4838 8.81912 11.8993 8.43717 12.35 8.1C14.91 6.2 19.16 7.58 21.2 4.93C21.7291 5.30703 22.2914 5.63506 22.88 5.90999Z" fill="black"/>
<path d="M15 25.43C15.1739 25.3239 15.32 25.1778 15.4261 25.0039C15.5322 24.8299 15.5952 24.6332 15.61 24.43C15.6195 24.2322 15.5763 24.0355 15.485 23.8598C15.3936 23.6842 15.2573 23.5358 15.09 23.43C15.0041 23.3772 14.9078 23.3437 14.8077 23.3316C14.7075 23.3195 14.606 23.3292 14.51 23.36C14.1906 23.2416 13.8501 23.1905 13.51 23.21C13.1866 23.1936 12.865 23.2663 12.58 23.42C12.4041 23.5203 12.2584 23.6661 12.1581 23.842C12.0579 24.0179 12.0067 24.2175 12.01 24.42C12.0557 24.7354 12.2092 25.0252 12.4443 25.2403C12.6795 25.4554 12.9818 25.5825 13.3 25.6C13.8682 25.7557 14.4739 25.6951 15 25.43Z" fill="black"/>
<path d="M24.63 24.79C25.2002 24.9494 25.8093 24.8924 26.34 24.63C26.5115 24.5221 26.6552 24.3754 26.7595 24.2017C26.8637 24.0279 26.9255 23.8321 26.94 23.63C26.9484 23.4324 26.9048 23.236 26.8136 23.0605C26.7223 22.885 26.5866 22.7366 26.42 22.63C26.3334 22.579 26.2371 22.5465 26.1373 22.5344C26.0375 22.5224 25.9363 22.5311 25.84 22.56C25.5184 22.4501 25.1796 22.3993 24.84 22.41C24.5157 22.3972 24.1942 22.4733 23.91 22.63C23.7345 22.73 23.5896 22.8759 23.491 23.0521C23.3923 23.2283 23.3435 23.4281 23.35 23.63C23.396 23.9417 23.5487 24.2277 23.7822 24.4393C24.0156 24.6509 24.3153 24.7748 24.63 24.79Z" fill="black"/>
<path d="M26.64 27.23C25.9758 27.5327 25.3672 27.9451 24.84 28.45C24.367 28.8374 23.7888 29.0743 23.18 29.13C22.5813 29.2621 21.9549 29.1695 21.42 28.87C21.2259 28.6763 21.0803 28.4394 20.9952 28.1787C20.91 27.9181 20.8877 27.641 20.93 27.37C21.0099 27.4073 21.0868 27.4508 21.16 27.5C21.3289 27.5948 21.5282 27.6196 21.7151 27.5691C21.9021 27.5187 22.0618 27.3969 22.16 27.23C22.2498 27.0601 22.2718 26.8624 22.2217 26.6769C22.1716 26.4913 22.0531 26.3317 21.89 26.23C21.3302 25.8573 20.6725 25.6589 20 25.66C19.6602 25.6585 19.3224 25.7126 19 25.82C18.8246 25.8761 18.6567 25.9533 18.5 26.05C18.2973 26.1796 18.1236 26.3499 17.99 26.55C17.8896 26.7222 17.8609 26.9269 17.91 27.12C17.9658 27.3059 18.0864 27.4656 18.25 27.57C18.3369 27.6204 18.4331 27.6526 18.5328 27.6647C18.6325 27.6767 18.7336 27.6683 18.83 27.64C19.0129 27.5785 19.1708 27.4591 19.28 27.3C19.23 27.38 19.28 27.3 19.33 27.3H19.39V28.06C19.4164 28.396 19.386 28.7341 19.3 29.06C19.11 29.66 18.5 29.72 17.95 29.8C17.2563 29.9268 16.5414 29.8646 15.88 29.62C15.197 29.2792 14.4589 29.0625 13.7 28.98C13.5011 28.98 13.3103 29.059 13.1697 29.1997C13.029 29.3403 12.95 29.5311 12.95 29.73C12.95 29.9289 13.029 30.1197 13.1697 30.2603C13.3103 30.401 13.5011 30.48 13.7 30.48C14.4584 30.6228 15.1948 30.8649 15.89 31.2C16.8014 31.4099 17.7486 31.4099 18.66 31.2C19.0248 31.1413 19.3722 31.0035 19.678 30.7962C19.9838 30.5889 20.2405 30.3171 20.43 30C21.031 30.4624 21.7719 30.7058 22.53 30.69C23.4536 30.7074 24.3639 30.4685 25.16 30C25.82 29.62 26.32 28.91 27.04 28.63C27.2277 28.5719 27.3861 28.4443 27.4827 28.2733C27.5794 28.1023 27.6071 27.9007 27.56 27.71C27.496 27.5283 27.3655 27.3777 27.1947 27.2886C27.0239 27.1994 26.8256 27.1785 26.64 27.23Z" fill="black"/>
</svg>
