<svg width="44" height="44" viewBox="0 0 44 44" fill="none" xmlns="http://www.w3.org/2000/svg">
<path d="M43.79 21.4C42.79 19.4 40.47 21.24 39.33 21.98C37.2204 23.308 35.1872 24.7537 33.24 26.31C33.77 25.26 34.24 24.18 34.67 23.11C35.5138 20.6654 35.7169 18.0454 35.26 15.5C34.9684 13.0125 33.9214 10.6741 32.26 8.8C31.5703 8.06118 30.7542 7.45159 29.85 7C29.8027 5.5126 29.5983 4.03438 29.24 2.59C28.85 1.32 27.85 -0.119998 26.34 0.0100017C25.5936 0.106968 24.8952 0.431718 24.34 0.940001C23.811 1.36065 23.3253 1.83299 22.89 2.35C22.4441 2.88056 22.0459 3.44943 21.7 4.05C21.37 4.66 21.12 5.32 20.75 5.9C19.59 5.9 18.42 6.02 17.28 6.12C14.7969 6.30091 12.354 6.84677 10.03 7.74C8.44 5.79 6.1 3.53 3.43 3.93C2.80783 4.04058 2.22173 4.3003 1.7219 4.68694C1.22206 5.07357 0.823381 5.57559 0.56 6.15C-0.000882089 7.4054 -0.141183 8.8084 0.159999 10.15C0.567682 11.7584 1.24384 13.2866 2.16 14.67C1.58793 15.8092 1.19658 17.0305 0.999999 18.29C0.636292 20.7602 1.00069 23.2829 2.04859 25.5492C3.09649 27.8155 4.78242 29.7271 6.9 31.05C6.6818 32.193 6.11604 33.2407 5.28 34.05C4.28 35.05 3.2 35.94 2.28 36.96C1.61 37.66 2.67 38.72 3.28 38.02C4.33 36.92 5.55 36.02 6.54 34.87C7.54766 33.8038 8.20084 32.452 8.41 31C8.46413 30.9183 8.50025 30.826 8.51593 30.7293C8.53162 30.6326 8.52652 30.5336 8.50097 30.439C8.47543 30.3444 8.43003 30.2563 8.36778 30.1806C8.30554 30.1049 8.22789 30.0433 8.14 30C6.31748 28.9796 4.81344 27.4741 3.79488 25.6506C2.77632 23.8271 2.2831 21.7569 2.37 19.67C2.52615 17.5399 3.24796 15.4902 4.46092 13.7322C5.67388 11.9743 7.33404 10.572 9.27 9.67C13.63 7.44 18.69 7.34 23.48 7.36C25.7 7.36 27.99 7.36 29.9 8.66C31.6482 9.93234 32.8913 11.7809 33.41 13.88C34.1659 16.4392 34.2142 19.1555 33.55 21.74C33.1173 23.0224 32.5787 24.2667 31.94 25.46C31.3448 26.718 30.6316 27.9167 29.81 29.04C29.6855 29.2076 29.6287 29.4159 29.6509 29.6235C29.6732 29.8311 29.7728 30.0226 29.93 30.16C29.9822 30.2585 30.0573 30.3432 30.1488 30.4068C30.2404 30.4705 30.3458 30.5114 30.4564 30.5261C30.5669 30.5407 30.6794 30.5288 30.7844 30.4912C30.8894 30.4536 30.9839 30.3915 31.06 30.31C33.2802 28.0359 35.7529 26.0228 38.43 24.31L40.36 23.04L41.36 22.39C41.58 22.25 41.98 21.93 42.27 21.96C42.84 22.01 42.01 22.87 41.83 23.01C41.3305 23.3584 40.8798 23.7721 40.49 24.24C40.3694 24.2934 40.2698 24.385 40.2066 24.5007C40.1433 24.6164 40.1199 24.7497 40.14 24.88C40.4148 25.9511 40.612 27.0406 40.73 28.14C40.68 29.3 39.73 29.54 38.73 29.64C37.9284 29.6616 37.1339 29.7963 36.37 30.04C35.5224 30.4044 34.7921 30.9962 34.26 31.75C33.6943 32.4188 33.2478 33.1799 32.94 34C32.6999 34.9569 32.6189 35.9468 32.7 36.93C32.7 38.93 32.46 41.16 31.03 42.73C30.39 43.44 31.44 44.5 32.09 43.73C33.3462 42.203 34.0508 40.297 34.09 38.32C34.17 37.26 34.09 36.19 34.16 35.14C34.3856 33.9795 34.9864 32.9254 35.87 32.14C37.28 30.69 39.38 31.55 40.98 30.5C42.98 29.2 41.9 26.97 41.63 25.12C42.09 24.42 42.97 24.12 43.45 23.42C43.6719 23.139 43.8193 22.8066 43.8788 22.4536C43.9382 22.1005 43.9077 21.7381 43.79 21.4ZM1.62 9.71C1.46755 9.07516 1.46594 8.41343 1.61528 7.77785C1.76463 7.14228 2.06078 6.55052 2.48 6.05C3.48 5.05 4.97 5.35 6.08 6.05C7.04632 6.69639 7.91227 7.48147 8.65 8.38C8.15 8.64 7.65 8.92 7.19 9.22H7.12L6.89 9C6.39066 8.63949 5.8323 8.36878 5.24 8.2C4.98462 8.12523 4.71462 8.11533 4.45445 8.17121C4.19428 8.22708 3.95216 8.34697 3.75 8.52C3.5679 8.71344 3.43618 8.9487 3.36642 9.20505C3.29667 9.4614 3.29103 9.73096 3.35 9.99C3.45471 10.4178 3.62686 10.8263 3.86 11.2C3.95 11.36 4.04 11.52 4.14 11.67V11.72C3.72556 12.1929 3.34463 12.6941 3 13.22C2.35368 12.1321 1.88766 10.9468 1.62 9.71ZM22.51 5.87C22.64 5.59 22.77 5.31 22.92 5.03C23.1695 4.54571 23.4606 4.08398 23.79 3.65C24.1266 3.21722 24.5014 2.8156 24.91 2.45C25.2703 2.06973 25.7018 1.76394 26.18 1.55C27.18 1.2 27.72 2.63 27.89 3.36C28.1097 4.34689 28.2468 5.35036 28.3 6.36C27.8017 6.21692 27.2937 6.10998 26.78 6.04C26.7844 5.9634 26.7844 5.88661 26.78 5.81V5.56C26.78 5.39 26.73 5.21 26.71 5.04C26.7002 4.76349 26.6098 4.49586 26.45 4.27C26.351 4.13735 26.2205 4.03137 26.0704 3.96156C25.9203 3.89174 25.7553 3.86028 25.59 3.87C25.3435 3.87605 25.1025 3.94489 24.89 4.07C24.7284 4.15793 24.5856 4.27687 24.47 4.42C24.3129 4.60456 24.1878 4.81412 24.1 5.04C24.0042 5.29602 23.9535 5.56668 23.95 5.84C23.46 5.86 23 5.87 22.51 5.87Z" fill="black"/>
<path d="M24.54 27.42C22.6673 27.9195 20.8611 28.6413 19.16 29.57C17.3454 30.4798 15.6181 31.5543 14 32.78C13.24 33.35 14 34.65 14.75 34.07C16.9121 32.4408 19.2623 31.0777 21.75 30.01C22.22 29.81 25.55 28.32 25.75 29.01C25.9 29.53 23.02 30.48 22.66 30.88C21.92 31.69 22.3 32.68 22.58 33.58C23.11 35.3 20.94 35.34 19.84 35.05C18.57 34.72 17.66 34.29 16.52 35.12C15.38 35.95 14.2 36.89 13 37.69C12.3839 38.1827 11.6614 38.525 10.89 38.69C10.03 38.76 9.66 37.69 9.5 37.02C9.29376 35.4409 9.50048 33.8354 10.1 32.36C10.1346 32.1754 10.0987 31.9845 9.99942 31.8251C9.90009 31.6657 9.74457 31.5493 9.56359 31.4991C9.38262 31.4488 9.18937 31.4683 9.02205 31.5536C8.85473 31.639 8.72554 31.784 8.66 31.96C8.07093 33.5224 7.83197 35.1951 7.96 36.86C8.14 38.15 8.83 39.86 10.29 40.17C11.75 40.48 13.46 39.17 14.61 38.38L16.86 36.72C17.18 36.48 17.58 36.07 18.02 36.07C18.5684 36.1648 19.1049 36.3191 19.62 36.53C20.3056 36.7696 21.045 36.8103 21.7528 36.6475C22.4606 36.4847 23.1079 36.125 23.62 35.61C23.9964 35.1777 24.2025 34.6232 24.2 34.05C24.2 33.4 23.36 32.23 23.96 31.76C25.04 30.92 26.9 30.96 27.21 29.32C27.52 27.68 25.8 27.13 24.54 27.42Z" fill="black"/>
<path d="M16.85 15.28C17.5141 15.3053 18.175 15.1751 18.78 14.9C19.0557 14.7957 19.305 14.6318 19.51 14.42C19.6823 14.248 19.7976 14.0273 19.8405 13.7877C19.8834 13.5481 19.8518 13.3011 19.75 13.08C19.6088 12.8904 19.4246 12.7371 19.2124 12.6327C19.0003 12.5284 18.7664 12.476 18.53 12.48C18.4902 12.475 18.4498 12.475 18.41 12.48H18.06C17.8278 12.5229 17.6024 12.5969 17.39 12.7C17.089 12.849 16.8069 13.0337 16.55 13.25C16.2829 13.4525 16.0784 13.7264 15.96 14.04C15.9245 14.1794 15.9196 14.3249 15.9455 14.4664C15.9714 14.6079 16.0275 14.7421 16.11 14.86C16.1949 14.9801 16.3052 15.08 16.4331 15.1526C16.561 15.2252 16.7034 15.2687 16.85 15.28Z" fill="black"/>
<path d="M26.51 11.94C27.0101 12.0864 27.5375 12.1138 28.05 12.02C28.2771 11.9889 28.4951 11.9105 28.69 11.79C28.8617 11.6934 28.9974 11.5437 29.0768 11.3634C29.1561 11.1831 29.1748 10.9819 29.13 10.79C29.0598 10.6187 28.9497 10.4667 28.8088 10.3467C28.6679 10.2266 28.5003 10.142 28.32 10.1H28.23C28.1735 10.0944 28.1165 10.0944 28.06 10.1H28C27.8208 10.0756 27.6392 10.0756 27.46 10.1C27.2009 10.1531 26.9491 10.237 26.71 10.35C26.4711 10.4593 26.267 10.6323 26.12 10.85C26.0683 10.9488 26.0413 11.0585 26.0413 11.17C26.0413 11.2815 26.0683 11.3913 26.12 11.49C26.189 11.6836 26.3282 11.8442 26.51 11.94Z" fill="black"/>
<path d="M31 16.37C30.8983 16.2069 30.7387 16.0884 30.5531 16.0383C30.3676 15.9882 30.1699 16.0102 30 16.1C29.5608 16.3582 29.074 16.5249 28.5688 16.5902C28.0636 16.6555 27.5504 16.618 27.06 16.48C26.6093 16.3741 26.195 16.1497 25.86 15.83C25.6943 15.6632 25.562 15.4664 25.47 15.25C25.5388 15.3192 25.6206 15.3742 25.7107 15.4117C25.8008 15.4492 25.8974 15.4685 25.995 15.4685C26.0926 15.4685 26.1892 15.4492 26.2793 15.4117C26.3694 15.3742 26.4512 15.3192 26.52 15.25C26.6604 15.1094 26.7393 14.9188 26.7393 14.72C26.7393 14.5213 26.6604 14.3306 26.52 14.19C26.1624 13.8285 25.717 13.5663 25.2274 13.4291C24.7378 13.2919 24.2209 13.2845 23.7276 13.4076C23.2343 13.5307 22.7815 13.78 22.4137 14.1311C22.0459 14.4822 21.7758 14.9229 21.63 15.41C21.5808 15.6022 21.6087 15.806 21.7077 15.9779C21.8067 16.1498 21.9691 16.2762 22.16 16.33C22.3507 16.3771 22.5523 16.3494 22.7233 16.2528C22.8943 16.1561 23.0219 15.9977 23.08 15.81V15.7L23.2 15.49L23.26 15.4C23.3218 15.3415 23.3787 15.2779 23.43 15.21L23.52 15.13C23.5147 15.1832 23.5147 15.2368 23.52 15.29C23.6381 15.5596 23.6991 15.8507 23.6991 16.145C23.6991 16.4393 23.6381 16.7304 23.52 17C23.2227 17.4091 22.8177 17.7276 22.35 17.92C21.2188 18.4627 19.952 18.6576 18.71 18.48C18.5193 18.433 18.3177 18.4606 18.1467 18.5573C17.9757 18.6539 17.8481 18.8123 17.79 19C17.7377 19.1909 17.763 19.3948 17.8604 19.5671C17.9579 19.7395 18.1194 19.8663 18.31 19.92C19.2105 20.0699 20.1295 20.0699 21.03 19.92C22.21 21.49 24.34 23.06 26.36 22.14C27.1881 21.8011 27.9006 21.23 28.4116 20.4954C28.9225 19.7609 29.2102 18.8943 29.24 18C29.7616 17.8989 30.2599 17.7023 30.71 17.42C30.799 17.3711 30.8773 17.3049 30.9403 17.2252C31.0032 17.1456 31.0496 17.0541 31.0767 16.9562C31.1037 16.8583 31.1108 16.756 31.0977 16.6554C31.0845 16.5547 31.0513 16.4576 31 16.37ZM25.8 20.81C25.4992 20.9092 25.1792 20.9355 24.8663 20.8868C24.5533 20.8382 24.2564 20.7159 24 20.53C23.5126 20.2485 23.0709 19.8944 22.69 19.48C22.93 19.38 23.16 19.28 23.39 19.16C24.0711 18.8275 24.6332 18.2933 25 17.63C25.0663 17.4987 25.1198 17.3615 25.16 17.22C25.9366 17.7519 26.8492 18.0503 27.79 18.08C27.7448 18.6751 27.5347 19.2457 27.1832 19.728C26.8317 20.2102 26.3527 20.5849 25.8 20.81Z" fill="black"/>
</svg>
