<svg width="200" height="194" viewBox="0 0 200 194" fill="none" xmlns="http://www.w3.org/2000/svg">
<path d="M61.6091 123.482C61.0493 123.382 60.5002 123.233 59.9685 123.036L59.6261 123.05L59.0541 122.802C58.6126 122.608 58.1861 122.383 57.7778 122.129L57.4249 121.902L56.9099 121.531C56.1163 120.916 55.3867 120.228 54.7315 119.476L54.4032 119.097L54.0048 118.539L53.5052 117.805L53.3014 117.421C53.2922 117.21 53.1274 117.005 53.0546 116.766C52.9819 116.528 53.0126 115.802 53.0362 116.344L53.006 115.651C53.006 115.651 53.006 115.651 52.9981 115.47L53.6828 115.442L54.1808 115.422C54.7366 115.339 55.3002 115.316 55.8613 115.353L56.1103 115.343L56.9895 115.488L57.8728 115.724L58.2217 115.86C58.7301 116.081 59.2399 116.332 59.7509 116.613C60.0379 116.795 60.3609 116.917 60.6993 116.971C61.0377 117.024 61.384 117.009 61.7159 116.926C62.0479 116.843 62.3582 116.693 62.627 116.487C62.8958 116.28 63.1171 116.022 63.2766 115.728C63.4362 115.434 63.5306 115.111 63.5538 114.779C63.5769 114.448 63.5282 114.115 63.4109 113.803C63.2936 113.491 63.1103 113.206 62.8726 112.967C62.635 112.727 62.3482 112.539 62.0309 112.413C59.9749 111.206 57.6196 110.561 55.2154 110.548C53.9383 110.363 52.6333 110.538 51.4561 111.052C50.2788 111.566 49.2792 112.397 48.5764 113.447C46.5235 117.849 50.4489 122.792 53.8945 125.308C55.8385 126.76 58.1335 127.705 60.5613 128.055C60.882 128.134 61.2157 128.15 61.5431 128.103C61.8704 128.056 62.1847 127.946 62.4677 127.78C62.7507 127.614 62.9966 127.394 63.1912 127.135C63.3859 126.876 63.5252 126.582 63.6012 126.27C63.7058 125.646 63.5567 125.007 63.1852 124.487C62.8138 123.967 62.2489 123.607 61.6091 123.482Z" fill="black"/>
<path d="M163.965 94.4089C163.601 94.3959 163.237 94.4108 162.876 94.4535C163.25 85.8659 163.08 76.9685 159.435 69.2093C159.556 69.0425 159.663 68.8665 159.755 68.6831C160.947 65.2537 162.17 61.8231 163.329 58.3649C164.628 55.0599 165.525 51.6196 166.001 48.1137C166.481 42.6609 164.919 35.4505 160.45 31.6791C155.042 27.1312 148.176 29.9173 143.186 33.502C137.323 37.7376 131.721 42.3005 126.407 47.1674C114.694 44.0726 102.35 43.9742 90.5853 46.8819C88.9175 44.7949 86.9343 42.963 84.7024 41.4479C82.1783 39.5788 79.5301 37.8721 76.7749 36.3389C74.1329 34.7526 71.1607 33.7519 68.0717 33.4085C64.9826 33.0652 61.8533 33.3878 58.9083 34.3531C57.4869 34.8174 56.2019 35.6059 55.1617 36.6518C54.1215 37.6978 53.3567 38.9706 52.9318 40.3627C52.3839 43.2949 52.3042 46.291 52.6954 49.2465C52.7703 55.3671 54.1596 61.4057 56.7752 66.9789C56.8895 67.1379 57.0214 67.2843 57.1686 67.4155C51.9968 74.4789 49.0465 82.8389 48.6734 91.4877C46.7983 88.546 44.753 85.2792 40.9999 85.7648C36.1231 86.2359 34.4989 91.1921 34.9254 95.2496C35.283 99.4045 36.7931 103.389 39.2963 106.782C36.8407 108.693 34.9948 111.237 33.9722 114.121C32.9497 117.005 32.7925 120.11 33.5188 123.077C34.221 125.526 35.4655 127.798 37.1659 129.735C38.8663 131.672 40.982 133.228 43.366 134.295C41.2798 139.465 40.5276 145.049 41.1746 150.563C41.2177 151.189 41.508 151.775 41.9852 152.199C42.4625 152.623 43.0902 152.854 43.7383 152.843C44.3878 152.808 44.9978 152.53 45.4379 152.066C45.8781 151.603 46.1137 150.991 46.0943 150.362C45.3345 145.415 45.8981 140.362 47.7313 135.686C48.3639 135.833 49.0041 135.947 49.6491 136.03C52.7839 136.385 53.8919 131.751 50.7571 131.397C47.972 131.197 45.3061 130.222 43.0815 128.588C40.857 126.954 39.169 124.732 38.2215 122.19C37.4873 119.701 37.6702 117.042 38.739 114.669C39.8078 112.296 41.6959 110.357 44.0799 109.182C44.3891 108.979 44.647 108.711 44.8347 108.398C45.0224 108.086 45.135 107.736 45.1642 107.375C45.1934 107.015 45.1384 106.653 45.0034 106.315C44.8683 105.978 44.6567 105.675 44.384 105.427C42.4684 103.427 41.079 101.009 40.3335 98.3788C39.9656 97.0959 38.2766 90.5547 40.9829 90.3836C42.353 90.3276 43.2651 92.6446 43.8325 93.4968C44.6629 94.7214 45.5578 95.9038 46.5137 97.0394C47.6666 98.4411 48.9492 99.9582 50.9293 100.3C51.8119 100.379 52.6997 100.214 53.489 99.8236C54.2783 99.4332 54.9367 98.8338 55.3873 98.0951C56.9145 95.9198 57.6492 94.1692 60.3148 93.0641C61.4783 92.5638 65.8407 91.0271 66.5291 92.5081C67.2176 93.9892 62.4928 97.231 61.8876 98.3726C61.136 100.271 60.9504 102.335 61.3518 104.331C61.7531 106.326 62.7254 108.172 64.1578 109.659C67.4529 113.69 71.2717 116.854 70.1448 122.484C69.2714 126.776 64.7406 128.742 64.0422 132.755C63.7787 135.415 63.8119 138.096 64.1413 140.75C64.2727 143.763 64.4042 146.776 64.7847 149.778C65.1652 152.781 69.9603 152.585 69.7044 149.577C69.4484 146.569 69.2394 143.922 69.0847 141.091C68.5655 138.412 68.5302 135.666 68.9803 132.975C69.1089 132.669 69.2742 132.379 69.4728 132.11L69.7325 132.341C79.0436 137.98 89.6436 141.319 100.601 142.065C110.69 143.102 121.763 144.52 131.534 141.102C131.435 143.129 130.726 145.482 130.489 147.182C130.049 149.977 129.578 152.773 129.045 155.572C128.512 158.37 133.359 159.349 133.912 156.308C134.466 153.267 134.989 150.227 135.424 147.342C136.009 144.732 136.301 142.069 136.294 139.398C136.109 135.15 131.647 132.978 131.208 128.619C130.615 122.908 134.798 120.111 138.404 116.251C139.967 114.909 141.109 113.168 141.697 111.228C142.286 109.287 142.297 107.226 141.731 105.279C141.242 104.092 137.104 100.035 137.685 99.0455C138.265 98.0559 142.729 99.5636 143.97 100.117C146.524 101.461 147.073 103.31 148.388 105.58C148.762 106.361 149.359 107.021 150.109 107.482C150.859 107.944 151.73 108.188 152.619 108.184C154.515 107.87 156.207 106.847 157.33 105.335C158.377 104.337 159.372 103.289 160.312 102.195C160.964 101.414 162.111 99.1029 163.308 99.3558C165.978 99.7899 163.603 106.135 163.159 107.391C162.184 109.942 160.568 112.217 158.457 114.012C158.163 114.237 157.924 114.522 157.759 114.848C157.595 115.174 157.508 115.532 157.506 115.894C157.504 116.257 157.586 116.615 157.747 116.943C157.908 117.27 158.143 117.559 158.434 117.786C160.687 119.179 162.372 121.284 163.201 123.743C164.031 126.202 163.954 128.863 162.984 131.274C161.806 133.722 159.917 135.785 157.548 137.211C155.178 138.637 152.431 139.365 149.641 139.305C146.527 139.432 147.168 144.115 150.284 144.048L152.215 143.969C153.685 148.702 153.904 153.716 152.851 158.552C152.759 159.176 152.927 159.81 153.318 160.314C153.708 160.819 154.289 161.153 154.933 161.244C155.58 161.315 156.23 161.143 156.748 160.761C157.266 160.38 157.612 159.82 157.714 159.198C158.85 153.759 158.605 148.134 156.999 142.807C159.465 141.957 161.71 140.596 163.577 138.82C165.445 137.045 166.89 134.896 167.811 132.525C168.893 129.609 169.081 126.452 168.351 123.434C167.622 120.417 166.007 117.668 163.701 115.518C166.52 112.352 168.41 108.512 169.174 104.398C169.908 100.505 168.778 95.3289 163.965 94.4089ZM144.186 38.5622C147.722 35.9425 153.665 31.3227 157.723 35.6844C159.279 37.744 160.349 40.109 160.857 42.6126C161.365 45.1161 161.299 47.6971 160.664 50.1733C159.51 54.8421 158.032 59.4304 156.241 63.9068L155.711 63.2041C154.284 61.4658 152.689 59.8633 150.948 58.4185C151.185 58.0051 151.386 57.5728 151.547 57.1263C151.96 56.0051 152.162 54.8211 152.143 53.6307C152.108 52.3412 151.742 51.0803 151.078 49.9616C150.686 49.2434 150.112 48.6334 149.41 48.1886C148.929 47.9536 148.405 47.8144 147.867 47.7793C147.33 47.7443 146.791 47.814 146.282 47.9845C143.877 48.6866 141.714 50.0059 140.022 51.8023C137.339 50.6214 134.587 49.5951 131.778 48.7286C135.678 45.1583 139.896 41.7561 144.186 38.5622ZM57.2821 42.841C57.3545 41.8102 57.7756 40.8312 58.4802 40.055C59.1849 39.2788 60.134 38.7486 61.1811 38.5463C63.5691 37.9762 66.0543 37.8992 68.4751 38.3202C70.8958 38.7413 73.1977 39.651 75.2309 40.9901C77.4506 42.2519 79.5939 43.6356 81.6503 45.1344C82.9832 46.074 84.2292 47.1239 85.3743 48.2722C82.3419 49.3233 79.3747 50.5432 76.4877 51.9257C75.6939 50.8643 74.7833 49.8895 73.7719 49.0184C72.4712 48.0161 70.8711 47.4464 69.2092 47.3939C68.2975 47.3401 67.3929 47.5793 66.6361 48.0742C65.8792 48.5691 65.3125 49.2921 65.024 50.1308C64.9183 50.9241 64.9534 51.7291 65.1278 52.5111C65.1646 53.3547 65.2948 54.1945 65.5184 55.0306C65.7275 56.0407 66.0001 57.0376 66.3348 58.0156C64.2502 59.5664 62.3109 61.2921 60.5395 63.1726C58.8107 58.9572 57.8656 54.4793 57.7479 49.9454C57.4299 47.5899 57.2743 45.2165 57.2821 42.841ZM153.754 102.01L152.856 102.892C152.32 103.458 152.198 103.523 152.491 103.088C152.285 102.756 152.133 102.396 152.039 102.02C151.73 101.186 151.296 100.4 150.751 99.6883C149.55 98.118 147.989 96.8387 146.19 95.9509C143 94.3307 137.679 92.4656 134.608 95.006C131.537 97.5463 133.395 102.239 135.696 104.952C139.97 109.969 134.046 113.592 130.649 117.233C128.451 119.446 127.005 122.256 126.501 125.286C125.998 128.316 126.462 131.422 127.832 134.19C128.409 135.143 129.086 136.036 129.851 136.855C120.628 139.948 110.086 138.538 100.652 137.506C90.7718 136.696 81.2264 133.654 72.7832 128.624L73.049 128.281C74.675 125.649 75.4328 122.599 75.2213 119.539C75.0098 116.479 73.8391 113.554 71.8654 111.155C68.8299 107.355 63.3473 103.233 67.9817 98.6365C70.5557 96.1466 73.2132 91.9933 70.0496 88.8326C66.886 85.6719 61.6583 87.3949 58.4103 88.7351C56.5491 89.4476 54.872 90.5466 53.4975 91.9545L53.504 92.1051C53.6778 84.706 55.9654 77.4978 60.1133 71.2794C65.9649 62.4074 75.7717 56.9656 85.8091 53.2348C96.7118 49.1978 108.587 48.2928 120.008 50.6287C130.576 52.6414 141.631 55.7812 149.451 63.4299C158.764 72.4061 158.506 85.094 157.869 96.9523C156.352 98.6443 155.036 100.66 153.754 102.01Z" fill="black"/>
<path d="M153.478 121.613C152.59 119.144 149.559 118.302 147.088 118.131C144.683 117.942 142.269 118.374 140.094 119.383C139.511 119.637 139.049 120.096 138.802 120.666C138.555 121.236 138.54 121.876 138.762 122.457C139.018 123.025 139.491 123.477 140.082 123.717C140.674 123.957 141.338 123.967 141.937 123.745C142.446 123.49 142.98 123.286 143.532 123.137L143.906 123.122L144.809 123.085L145.93 123.039C146.497 123.064 147.061 123.122 147.621 123.211L148.126 123.341L148.79 123.556L148.802 123.827L148.829 124.429C148.806 123.917 148.84 124.701 148.659 124.829C148.573 125.053 148.468 125.269 148.344 125.476L148.109 125.817L147.548 126.535L147.071 127.037L146.712 127.384C145.989 128.09 145.19 128.72 144.33 129.262L143.813 129.585C144.3 129.294 143.533 129.597 143.44 129.601C143.005 129.82 142.555 130.01 142.092 130.169L141.47 130.194L141.127 130.208C140.58 130.276 140.028 130.298 139.477 130.276C139.147 130.317 138.829 130.421 138.54 130.581C138.251 130.741 137.998 130.955 137.795 131.21C137.592 131.465 137.443 131.756 137.356 132.067C137.269 132.378 137.246 132.702 137.289 133.022C137.331 133.341 137.438 133.649 137.604 133.928C137.77 134.208 137.99 134.453 138.254 134.649C138.517 134.846 138.818 134.991 139.139 135.075C139.461 135.159 139.796 135.181 140.126 135.14C142.586 134.969 144.958 134.185 147.013 132.865C150.695 130.753 155.081 126.196 153.478 121.613Z" fill="black"/>
<path d="M85.6987 85.5369C86.2699 85.6031 86.8485 85.5795 87.412 85.4669C87.9223 85.3126 88.3829 85.0341 88.7498 84.658C89.0517 84.331 89.289 83.9531 89.4501 83.5433C89.7193 82.7928 89.7384 81.9796 89.5046 81.2181C89.4092 80.8999 89.2808 80.5918 89.1212 80.2985C88.9842 80.0649 88.8175 79.8488 88.625 79.6551C88.4298 79.2755 88.1089 78.9701 87.7134 78.7873L87.4018 78.8C87.015 78.6034 86.5983 78.4677 86.1672 78.3979L85.918 78.4081L85.6377 78.4195C85.2633 78.39 84.8867 78.4054 84.5162 78.4653C84.0733 78.5144 83.6377 78.6132 83.2184 78.7597C82.3548 79.0747 81.6309 79.6693 81.1698 80.4424C81.0253 80.7157 80.9123 81.0036 80.8328 81.3009C80.7377 81.6258 80.6997 81.9639 80.7204 82.301C80.6867 82.6225 80.7008 82.9471 80.7625 83.2647C80.8821 83.5783 81.0205 83.885 81.177 84.183C81.2922 84.3509 81.4245 84.5072 81.5719 84.6496C81.609 84.7296 81.6656 84.7998 81.7368 84.854C81.9367 85.0763 82.1776 85.2609 82.4471 85.3982L82.634 85.3906C83.1324 85.6019 83.6665 85.7232 84.21 85.7486C84.7102 85.707 85.2073 85.6364 85.6987 85.5369Z" fill="black"/>
<path d="M127.98 80.6985C127.843 80.4649 127.676 80.2487 127.484 80.055C127.28 79.6819 126.961 79.3788 126.572 79.1872L126.261 79.1999C125.809 78.8911 125.302 78.6663 124.765 78.5369L124.485 78.5483L124.235 78.5585C123.861 78.529 123.485 78.5444 123.114 78.6043C122.659 78.6421 122.212 78.7416 121.785 78.9C120.915 79.2036 120.187 79.8013 119.737 80.5828C119.564 80.8467 119.439 81.1376 119.369 81.4426C119.351 81.7745 119.365 82.1073 119.412 82.4365C119.394 82.7583 119.408 83.0811 119.454 83.4002C119.546 83.7239 119.686 84.0331 119.869 84.3186C119.972 84.4867 120.094 84.6435 120.232 84.7865L120.428 84.9897C120.639 85.2125 120.891 85.3964 121.17 85.5326L121.357 85.525C121.845 85.7326 122.368 85.8542 122.901 85.8843L124.465 85.9712C125.047 86.0381 125.636 86.0141 126.21 85.8999C126.723 85.7369 127.183 85.4478 127.546 85.0609C127.856 84.7564 128.085 84.385 128.217 83.9775C128.496 83.2297 128.526 82.4159 128.302 81.6508C128.229 81.3236 128.121 81.0045 127.98 80.6985Z" fill="black"/>
<path d="M122.66 104.037C118.977 105.096 115.037 104.971 111.434 103.681C109.901 103.186 108.507 102.356 107.362 101.255C106.687 100.405 106.342 99.3525 106.389 98.282C106.781 98.6337 107.282 98.8509 107.815 98.9C108.347 98.9491 108.882 98.8273 109.336 98.5536C109.876 98.2055 110.257 97.6699 110.399 97.0582C110.541 96.4465 110.433 95.8055 110.098 95.2684C109.406 94.2222 108.463 93.352 107.349 92.7314C106.234 92.1107 104.982 91.7579 103.697 91.7027C102.367 91.6953 101.059 92.0184 99.8965 92.6409C98.6822 93.2459 97.6467 94.1381 96.8869 95.2342C96.5845 95.8047 96.5238 96.4662 96.7177 97.079C96.9193 97.6628 97.3422 98.1515 97.9017 98.447C98.1916 98.5995 98.5111 98.6927 98.8401 98.7208C99.169 98.7489 99.5005 98.7112 99.8137 98.6101C100.409 98.3987 100.91 97.995 101.232 97.4676C101.241 97.6782 100.85 98.0255 101.232 97.4676C101.264 98.2196 101.11 98.9791 101.018 99.7361C100.989 100.55 100.846 101.357 100.592 102.134C100.488 102.4 100.329 102.642 100.124 102.846C99.8788 103.093 99.5921 103.298 99.2758 103.453C98.5491 103.86 97.7615 104.157 96.9408 104.331C95.4447 104.709 93.8821 104.772 92.3584 104.518C90.7252 104.229 89.1869 103.569 87.871 102.592C87.3874 102.179 86.7567 101.963 86.1115 101.989C85.4662 102.015 84.8566 102.282 84.4108 102.733C84.1913 102.96 84.0208 103.228 83.9092 103.519C83.7976 103.811 83.7471 104.121 83.7607 104.431C83.7743 104.742 83.8516 105.047 83.9882 105.328C84.1249 105.61 84.3181 105.862 84.5566 106.071C87.1803 108.115 90.4198 109.283 93.7896 109.401C94.5261 111.083 95.6608 112.574 97.1027 113.756C98.0586 114.537 99.1674 115.125 100.363 115.485C101.559 115.845 102.818 115.97 104.065 115.852C106.371 115.832 108.633 115.241 110.636 114.136C112.638 113.031 114.312 111.449 115.5 109.541C118.397 109.795 121.317 109.533 124.116 108.768C124.766 108.582 125.313 108.154 125.637 107.579C125.96 107.003 126.033 106.327 125.84 105.7C125.647 105.073 125.204 104.545 124.607 104.233C124.011 103.921 123.311 103.851 122.66 104.037ZM108.666 109.669C107.319 110.414 105.806 110.837 104.254 110.903C103.603 111.042 102.928 111.039 102.279 110.894C101.629 110.748 101.022 110.464 100.501 110.062C99.9659 109.623 99.4833 109.127 99.0628 108.584C101.2 108.007 103.085 106.778 104.437 105.081C105.835 106.281 107.441 107.236 109.182 107.9L110.386 108.303C109.889 108.841 109.309 109.302 108.666 109.669Z" fill="black"/>
</svg>
